<svg xmlns="http://www.w3.org/2000/svg" viewBox="0 0 640 520" role="img" aria-label="Premium 4K smart television">
  <defs>
    <linearGradient id="bezel" x1="0" y1="0" x2="1" y2="1"><stop offset="0" stop-color="#3a3f48"/><stop offset=".5" stop-color="#15181d"/><stop offset="1" stop-color="#2b3038"/></linearGradient>
    <linearGradient id="screen" x1="0" y1="0" x2="1" y2="1"><stop offset="0" stop-color="#0b1424"/><stop offset=".5" stop-color="#101d3a"/><stop offset="1" stop-color="#05080f"/></linearGradient>
    <radialGradient id="glow" cx=".35" cy=".3" r=".8"><stop offset="0" stop-color="#4d8dff" stop-opacity=".55"/><stop offset=".55" stop-color="#4d8dff" stop-opacity=".08"/><stop offset="1" stop-color="#4d8dff" stop-opacity="0"/></radialGradient>
    <linearGradient id="streak" x1="0" y1="0" x2="1" y2="0"><stop offset="0" stop-color="#fff" stop-opacity="0"/><stop offset=".5" stop-color="#fff" stop-opacity=".12"/><stop offset="1" stop-color="#fff" stop-opacity="0"/></linearGradient>
    <linearGradient id="foot" x1="0" y1="0" x2="1" y2="0"><stop offset="0" stop-color="#6b727d"/><stop offset=".5" stop-color="#cfd4db"/><stop offset="1" stop-color="#6b727d"/></linearGradient>
    <clipPath id="sc"><rect x="46" y="38" width="548" height="318" rx="6"/></clipPath>
  </defs>
  <ellipse cx="320" cy="494" rx="190" ry="14" fill="#000" opacity=".35"/>
  <rect x="36" y="28" width="568" height="338" rx="14" fill="url(#bezel)"/>
  <rect x="38" y="30" width="564" height="334" rx="13" fill="none" stroke="#fff" stroke-opacity=".14"/>
  <rect x="46" y="38" width="548" height="318" rx="6" fill="url(#screen)"/>
  <g clip-path="url(#sc)">
    <rect x="46" y="38" width="548" height="318" fill="url(#glow)"/>
    <path d="M120 356 C 230 200, 360 160, 600 70 L 600 120 C 400 200, 300 260, 220 356 Z" fill="#4d8dff" opacity=".16"/>
    <path d="M300 356 C 380 250, 470 210, 600 170 L 600 220 C 500 250, 440 300, 400 356 Z" fill="#8ab4ff" opacity=".12"/>
    <rect x="-60" y="38" width="200" height="318" fill="url(#streak)" transform="rotate(18 300 200) translate(120 -40)"/>
  </g>
  <circle cx="320" cy="361" r="2" fill="#4d8dff"/>
  <path d="M250 366 L 270 452 H 370 L 390 366 Z" fill="#1a1d23"/>
  <rect x="210" y="452" width="220" height="12" rx="6" fill="url(#foot)"/>
</svg>
